<?xml version="1.0" encoding="UTF-8" standalone="no"?>
<svg
   width="200"
   height="200"
   viewBox="0 0 200 200"
   version="1.1"
   id="svg653"
   xmlns="http://www.w3.org/2000/svg"
   xmlns:svg="http://www.w3.org/2000/svg">
  <defs
     id="defs5">
    <rect
       id="p"
       width="8"
       height="8"
       x="0"
       y="0" />
  </defs>
  <path
     id="use7"
     style="fill:#000000"
     d="m 0,0 v 8 8 8 8 8 8 8 h 8 8 8 8 8 8 8 V 48 40 32 24 16 8 0 H 48 40 32 24 16 8 Z m 64,0 v 8 8 8 8 h 8 v 8 h -8 v 8 8 h 8 v -8 h 8 v 8 8 8 h 8 v -8 h 8 V 56 H 88 V 48 40 32 24 H 80 V 16 H 72 V 8 0 Z m 32,56 h 8 v -8 h -8 z m 8,-8 h 8 v 8 8 h 8 8 v -8 h -8 v -8 -8 h -8 v -8 h -8 -8 v 8 h 8 z m 8,-16 h 8 v -8 h -8 z m 8,0 v 8 h 8 v -8 z m 8,0 h 8 v -8 h -8 z m 0,8 v 8 8 h 8 V 48 40 Z M 104,0 v 8 h -8 -8 v 8 h 8 v 8 h 8 v -8 h 8 V 8 h 8 8 v 8 h 8 V 8 0 h -8 -8 -8 z m 40,0 v 8 8 8 8 8 8 8 h 8 8 8 8 8 8 8 V 48 40 32 24 16 8 0 h -8 -8 -8 -8 -8 -8 z M 8,8 h 8 8 8 8 8 v 8 8 8 8 8 H 40 32 24 16 8 v -8 -8 -8 -8 z m 144,0 h 8 8 8 8 8 v 8 8 8 8 8 h -8 -8 -8 -8 -8 V 40 32 24 16 Z M 16,16 v 8 8 8 h 8 8 8 v -8 -8 -8 h -8 -8 z m 144,0 v 8 8 8 h 8 8 8 v -8 -8 -8 h -8 -8 z M 0,64 v 8 h 8 v 8 8 h 8 v -8 h 8 8 8 v -8 h 8 8 v -8 h -8 -8 -8 v 8 H 24 16 V 64 H 8 Z m 16,24 v 8 h 8 v -8 z m 8,8 v 8 h 8 v -8 z m 8,0 h 8 v 8 h 8 8 v 8 h 8 8 v 8 h -8 v 8 h 8 v 8 h -8 v 8 h 8 8 v 8 h 8 8 v 8 8 h 8 v -8 -8 h 8 v 8 8 h 8 v -8 h 8 v 8 h 8 v 8 h 8 v 8 h 8 v -8 h 8 v -8 h 8 8 v 8 h 8 v 8 h -8 v -8 h -8 v 8 h -8 -8 v 8 h 8 8 8 v 8 h 8 8 8 v -8 h -8 v -8 -8 h 8 v -8 h -8 v -8 -8 h -8 -8 -8 v -8 -8 h 8 8 v -8 h 8 v -8 h -8 v -8 h -8 -8 v -8 h -8 v 8 h -8 v 8 8 h -8 -8 -8 -8 v 8 h 8 v 8 8 h -8 v -8 h -8 v -8 h -8 v 8 h -8 -8 v -8 h -8 v -8 h 8 v 8 h 8 v -8 -8 -8 -8 h -8 -8 -8 v -8 h -8 -8 -8 v -8 h -8 -8 z m 16,-8 h 8 8 8 v 8 h 8 v -8 h 8 8 8 8 v 8 8 h 8 v -8 -8 h 8 v 8 h 8 v -8 -8 -8 h -8 -8 v 8 h -8 v -8 h -8 v 8 h -8 -8 -8 -8 v -8 h -8 v 8 h -8 -8 z m 88,8 v 8 h -8 -8 v 8 h -8 v 8 h 8 8 8 v -8 h 8 v -8 h 8 v -8 -8 h 8 v -8 h -8 -8 v 8 8 z m 24,-16 h 8 v 8 h 8 v 8 h -8 v 8 h 8 8 v 8 h 8 v -8 h 8 v -8 h -8 v -8 h -8 v -8 h -8 v -8 h 8 v 8 h 8 v -8 h 8 v -8 h -8 -8 -8 -8 v 8 h -8 z m 0,-8 v -8 h -8 v 8 z m 8,24 v -8 h -8 v 8 z m -56,16 v -8 h -8 v 8 z m -8,-8 v -8 h -8 v 8 z m 48,88 h -8 v 8 h 8 z m -16,-16 h -8 v 8 h 8 z m -8,0 v -8 h -8 v 8 z m -32,-8 h -8 v 8 h -8 -8 v 8 h -8 v 8 8 h 8 v -8 h 8 v -8 h 8 8 v 8 h 8 v -8 -8 h -8 z m 8,24 v 8 h 8 v -8 z m 8,0 h 8 v -8 h -8 z m 8,0 v 8 h 8 v -8 z m -40,0 v 8 h 8 v -8 z m 0,-40 h -8 -8 v 8 8 h 8 8 v -8 z M 64,136 v -8 h -8 -8 v 8 h 8 z m -16,-8 v -8 h 8 v -8 h -8 -8 v 8 8 z m -8,0 h -8 v -8 h -8 -8 v -8 -8 -8 H 8 v 8 8 H 0 v 8 8 h 8 8 8 v 8 h 8 8 z m 0,-16 v -8 h -8 v 8 z m 40,0 h 8 v 8 h -8 z m 88,8 h 8 v 8 h -8 z m -32,16 h 8 8 8 v 8 8 8 h -8 -8 -8 v -8 -8 z M 0,144 v 8 8 8 8 8 8 8 h 8 8 8 8 8 8 8 v -8 -8 -8 -8 -8 -8 -8 H 48 40 32 24 16 8 Z m 144,0 v 8 h 8 v -8 z M 8,152 h 8 8 8 8 8 v 8 8 8 8 8 H 40 32 24 16 8 v -8 -8 -8 -8 z m 8,8 v 8 8 8 h 8 8 8 v -8 -8 -8 h -8 -8 z" />
</svg>
